<svg id="_3" viewBox="0 0 48 48" xmlns="http://www.w3.org/2000/svg" data-name="3" width="300" height="300" version="1.1" xmlns:xlink="http://www.w3.org/1999/xlink" xmlns:svgjs="http://svgjs.dev/svgjs"><g width="100%" height="100%" transform="matrix(1,0,0,1,0,0)"><path d="m18.48 19.34c-.73.83-2.22.83-2.95 0-.36-.42-.99-.46-1.41-.1s-.46.99-.1 1.41c.74.85 1.83 1.34 2.98 1.34s2.24-.49 2.98-1.34c.36-.42.32-1.05-.1-1.41s-1.05-.32-1.41.1z" fill="#ea765e" fill-opacity="1" data-original-color="#000000ff" stroke="none" stroke-opacity="1"/><circle cx="14.5" cy="15.5" r="1.5" fill="#ea765e" fill-opacity="1" data-original-color="#000000ff" stroke="none" stroke-opacity="1"/><circle cx="19.5" cy="15.5" r="1.5" fill="#ea765e" fill-opacity="1" data-original-color="#000000ff" stroke="none" stroke-opacity="1"/><path d="m17 43c6.62 0 12-5.38 12-12v-8.59l-18.6 18.6c1.89 1.25 4.16 1.99 6.6 1.99z" fill="#ea765e" fill-opacity="1" data-original-color="#000000ff" stroke="none" stroke-opacity="1"/><path d="m5 22.41v8.59c0 3.46 1.48 6.57 3.83 8.76l6.76-6.76z" fill="#ea765e" fill-opacity="1" data-original-color="#000000ff" stroke="none" stroke-opacity="1"/><path d="m17 5c-6.62 0-12 5.38-12 12v2.59l12 12 12-12v-2.59c0-6.62-5.38-12-12-12zm0 19c-3.87 0-7-3.13-7-7s3.13-7 7-7 7 3.13 7 7-3.13 7-7 7z" fill="#ea765e" fill-opacity="1" data-original-color="#000000ff" stroke="none" stroke-opacity="1"/><path d="m42 37h-1v-10c0-.74-.41-1.37-1-1.72v-2.28c0-1.1-.9-2-2-2v-5c0-.55-.45-1-1-1s-1 .45-1 1v5c-1.1 0-2 .9-2 2v2.28c-.59.35-1 .98-1 1.72v10h-1c-.55 0-1 .45-1 1s.45 1 1 1h3v2h-1c-.55 0-1 .45-1 1s.45 1 1 1h6c.55 0 1-.45 1-1s-.45-1-1-1h-1v-2h3c.55 0 1-.45 1-1s-.45-1-1-1zm-6-14h2v2h-2zm3 10h-4v-2h1c.55 0 1-.45 1-1s-.45-1-1-1h-1v-2h4z" fill="#ea765e" fill-opacity="1" data-original-color="#000000ff" stroke="none" stroke-opacity="1"/></g></svg>